
<svg
   version="1.2"
   width="143.26544mm"
   height="17.819712mm"
   viewBox="0 0 81.52595 10.1404"
   id="svg6211"
   sodipodi:docname="ricci left hand examples.svg"
   inkscape:export-filename="ricci ex 2.svg"
   inkscape:export-xdpi="96"
   inkscape:export-ydpi="96"
   xmlns:inkscape="http://www.inkscape.org/namespaces/inkscape"
   xmlns:sodipodi="http://sodipodi.sourceforge.net/DTD/sodipodi-0.dtd"
   xmlns="http://www.w3.org/2000/svg"
   xmlns:svg="http://www.w3.org/2000/svg">
  <defs
     id="defs6215" />
  <sodipodi:namedview
     id="namedview6213"
     pagecolor="#ffffff"
     bordercolor="#000000"
     borderopacity="0.25"
     inkscape:showpageshadow="2"
     inkscape:pageopacity="0.0"
     inkscape:pagecheckerboard="0"
     inkscape:deskcolor="#d1d1d1"
     inkscape:document-units="mm"
     showgrid="false" />
  <style
     type="text/css"
     id="style3113"><![CDATA[
tspan { white-space: pre; }
]]></style>
  <!-- Page: 1/1 -->
  <g
     transform="translate(-5.0035935e-5,7.6988001)"
     id="g3117">
    <line
       stroke-linejoin="round"
       stroke-linecap="round"
       stroke-width="0.0931"
       stroke="currentColor"
       x1="0.046599999"
       y1="0"
       x2="81.479401"
       y2="0"
       id="line3115" />
  </g>
  <g
     transform="translate(-5.0035935e-5,6.8988001)"
     id="g3121">
    <line
       stroke-linejoin="round"
       stroke-linecap="round"
       stroke-width="0.0931"
       stroke="currentColor"
       x1="0.046599999"
       y1="0"
       x2="81.479401"
       y2="0"
       id="line3119" />
  </g>
  <g
     transform="translate(-5.0035935e-5,6.0988001)"
     id="g3125">
    <line
       stroke-linejoin="round"
       stroke-linecap="round"
       stroke-width="0.0931"
       stroke="currentColor"
       x1="0.046599999"
       y1="0"
       x2="81.479401"
       y2="0"
       id="line3123" />
  </g>
  <g
     transform="translate(-5.0035935e-5,5.2988001)"
     id="g3129">
    <line
       stroke-linejoin="round"
       stroke-linecap="round"
       stroke-width="0.0931"
       stroke="currentColor"
       x1="0.046599999"
       y1="0"
       x2="81.479401"
       y2="0"
       id="line3127" />
  </g>
  <g
     transform="translate(-5.0035935e-5,4.4988001)"
     id="g3133">
    <line
       stroke-linejoin="round"
       stroke-linecap="round"
       stroke-width="0.0931"
       stroke="currentColor"
       x1="0.046599999"
       y1="0"
       x2="81.479401"
       y2="0"
       id="line3131" />
  </g>
  <g
     transform="translate(44.86265,6.0988001)"
     id="g3137">
    <rect
       x="0"
       y="-1.6"
       width="0.177"
       height="3.2"
       ry="0.0000"
       fill="currentColor"
       id="rect3135" />
  </g>
  <g
     transform="translate(81.34895,6.0988001)"
     id="g3141">
    <rect
       x="0"
       y="-1.6"
       width="0.177"
       height="3.2"
       ry="0.0000"
       fill="currentColor"
       id="rect3139" />
  </g>
  <g
     transform="translate(80.89255,6.0988001)"
     id="g3145">
    <rect
       x="0"
       y="-1.6"
       width="0.177"
       height="3.2"
       ry="0.0000"
       fill="currentColor"
       id="rect3143" />
  </g>
  <g
     transform="translate(-5.0035935e-5,8.4988001)"
     id="g3149">
    <rect
       x="77.049004"
       y="-0.086599998"
       width="1.561"
       height="0.17309999"
       ry="0.086599998"
       fill="currentColor"
       id="rect3147" />
  </g>
  <g
     transform="translate(-5.0035935e-5,9.2988001)"
     id="g3153">
    <rect
       x="77.049004"
       y="-0.086599998"
       width="1.561"
       height="0.17309999"
       ry="0.086599998"
       fill="currentColor"
       id="rect3151" />
  </g>
  <g
     transform="translate(-5.0035935e-5,8.4988001)"
     id="g3157">
    <rect
       x="74.808296"
       y="-0.086599998"
       width="1.561"
       height="0.17309999"
       ry="0.086599998"
       fill="currentColor"
       id="rect3155" />
  </g>
  <g
     transform="translate(-5.0035935e-5,9.2988001)"
     id="g3161">
    <rect
       x="74.808296"
       y="-0.086599998"
       width="1.561"
       height="0.17309999"
       ry="0.086599998"
       fill="currentColor"
       id="rect3159" />
  </g>
  <g
     transform="translate(-5.0035935e-5,8.4988001)"
     id="g3165">
    <rect
       x="72.567596"
       y="-0.086599998"
       width="1.561"
       height="0.17309999"
       ry="0.086599998"
       fill="currentColor"
       id="rect3163" />
  </g>
  <g
     transform="translate(-5.0035935e-5,8.4988001)"
     id="g3169">
    <rect
       x="70.326897"
       y="-0.086599998"
       width="1.561"
       height="0.17309999"
       ry="0.086599998"
       fill="currentColor"
       id="rect3167" />
  </g>
  <g
     transform="translate(-5.0035935e-5,8.4988001)"
     id="g3173">
    <rect
       x="16.514601"
       y="-0.086599998"
       width="1.561"
       height="0.17309999"
       ry="0.086599998"
       fill="currentColor"
       id="rect3171" />
  </g>
  <g
     transform="translate(-5.0035935e-5,8.4988001)"
     id="g3177">
    <rect
       x="14.2739"
       y="-0.086599998"
       width="1.561"
       height="0.17309999"
       ry="0.086599998"
       fill="currentColor"
       id="rect3175" />
  </g>
  <g
     transform="translate(-5.0035935e-5,8.4988001)"
     id="g3181">
    <rect
       x="12.0332"
       y="-0.086599998"
       width="1.561"
       height="0.17309999"
       ry="0.086599998"
       fill="currentColor"
       id="rect3179" />
  </g>
  <g
     transform="translate(-5.0035935e-5,9.2988001)"
     id="g3185">
    <rect
       x="12.0332"
       y="-0.086599998"
       width="1.561"
       height="0.17309999"
       ry="0.086599998"
       fill="currentColor"
       id="rect3183" />
  </g>
  <g
     transform="translate(-5.0035935e-5,8.4988001)"
     id="g3189">
    <rect
       x="9.7925997"
       y="-0.086599998"
       width="1.561"
       height="0.17309999"
       ry="0.086599998"
       fill="currentColor"
       id="rect3187" />
  </g>
  <g
     transform="translate(-5.0035935e-5,9.2988001)"
     id="g3193">
    <rect
       x="9.7925997"
       y="-0.086599998"
       width="1.561"
       height="0.17309999"
       ry="0.086599998"
       fill="currentColor"
       id="rect3191" />
  </g>
  <g
     transform="translate(53.64175,6.0988001)"
     id="g3197">
    <rect
       x="-0.0605"
       y="-3.3512001"
       width="0.1211"
       height="2.4142001"
       ry="0.039999999"
       fill="currentColor"
       id="rect3195" />
  </g>
  <g
     transform="translate(52.66165,5.2988001)"
     id="g3201">
    <path
       transform="scale(0.0032,-0.0032)"
       d="m 212,138 c 59,0 113,-31 113,-95 0,-71 -52,-120 -99,-148 -34,-21 -73,-33 -113,-33 -59,0 -113,31 -113,95 0,71 53,120 100,148 34,21 72,33 112,33 z"
       fill="currentColor"
       id="path3199" />
  </g>
  <g
     transform="translate(51.40115,6.0988001)"
     id="g3205">
    <rect
       x="-0.0605"
       y="-3.5655"
       width="0.1211"
       height="2.2284999"
       ry="0.039999999"
       fill="currentColor"
       id="rect3203" />
  </g>
  <g
     transform="translate(50.42095,4.8988001)"
     id="g3209">
    <path
       transform="scale(0.0032,-0.0032)"
       d="m 212,138 c 59,0 113,-31 113,-95 0,-71 -52,-120 -99,-148 -34,-21 -73,-33 -113,-33 -59,0 -113,31 -113,95 0,71 53,120 100,148 34,21 72,33 112,33 z"
       fill="currentColor"
       id="path3207" />
  </g>
  <g
     transform="translate(58.12315,6.0988001)"
     id="g3213">
    <rect
       x="-0.0605"
       y="-2.8345001"
       width="0.1211"
       height="2.6974001"
       ry="0.039999999"
       fill="currentColor"
       id="rect3211" />
  </g>
  <g
     transform="translate(60.36375,6.0988001)"
     id="g3217">
    <rect
       x="-0.0605"
       y="-2.6201"
       width="0.1211"
       height="2.8831"
       ry="0.039999999"
       fill="currentColor"
       id="rect3215" />
  </g>
  <g
     transform="translate(59.38365,6.4988001)"
     id="g3221">
    <path
       transform="scale(0.0032,-0.0032)"
       d="m 212,138 c 59,0 113,-31 113,-95 0,-71 -52,-120 -99,-148 -34,-21 -73,-33 -113,-33 -59,0 -113,31 -113,95 0,71 53,120 100,148 34,21 72,33 112,33 z"
       fill="currentColor"
       id="path3219" />
  </g>
  <g
     transform="translate(57.35605,1.4136001)"
     id="g3225">
    <path
       transform="scale(0.0018,-0.0018)"
       d="m 155,471 c -34,0 -70,-8 -70,-38 0,-19 31,-23 31,-42 0,-28 -23,-51 -51,-51 -28,0 -51,23 -51,51 0,67 68,109 141,109 93,0 174,-31 174,-113 0,-41 -6,-77 -42,-94 -11,-5 -17,-16 -17,-27 0,-11 6,-22 17,-27 40,-19 59,-53 59,-98 C 346,47 263,0 160,0 78,0 0,45 0,119 c 0,32 26,58 58,58 32,0 58,-26 58,-58 0,-22 -36,-26 -36,-48 0,-33 42,-42 80,-42 46,0 56,58 56,112 v 38 c 0,40 -4,69 -43,69 H 99 c -12,0 -18,9 -18,18 0,9 6,18 18,18 h 74 c 40,0 43,31 43,73 v 30 c 0,50 -16,84 -61,84 z"
       fill="currentColor"
       id="path3223" />
  </g>
  <g
     transform="translate(57.14295,6.0988001)"
     id="g3229">
    <path
       transform="scale(0.0032,-0.0032)"
       d="m 212,138 c 59,0 113,-31 113,-95 0,-71 -52,-120 -99,-148 -34,-21 -73,-33 -113,-33 -59,0 -113,31 -113,95 0,71 53,120 100,148 34,21 72,33 112,33 z"
       fill="currentColor"
       id="path3227" />
  </g>
  <g
     transform="translate(55.88245,6.0988001)"
     id="g3233">
    <rect
       x="-0.0605"
       y="-3.0488"
       width="0.1211"
       height="2.5116999"
       ry="0.039999999"
       fill="currentColor"
       id="rect3231" />
  </g>
  <g
     transform="translate(54.90235,5.6988001)"
     id="g3237">
    <path
       transform="scale(0.0032,-0.0032)"
       d="m 212,138 c 59,0 113,-31 113,-95 0,-71 -52,-120 -99,-148 -34,-21 -73,-33 -113,-33 -59,0 -113,31 -113,95 0,71 53,120 100,148 34,21 72,33 112,33 z"
       fill="currentColor"
       id="path3235" />
  </g>
  <g
     transform="translate(46.91975,6.0988001)"
     id="g3241">
    <rect
       x="-0.0605"
       y="-3.9942"
       width="0.1211"
       height="1.8571"
       ry="0.039999999"
       fill="currentColor"
       id="rect3239" />
  </g>
  <g
     transform="translate(45.93965,8.0988001)"
     id="g3245">
    <path
       transform="scale(0.0032,-0.0032)"
       d="m 310,63 c 0,23 -19,40 -40,40 -4,0 -8,-1 -12,-2 C 228,93 183,63 147,40 111,17 66,-12 46,-36 39,-44 36,-53 36,-63 c 0,-23 19,-40 40,-40 4,0 8,1 12,2 30,8 75,38 111,61 36,23 81,52 101,76 7,8 10,17 10,27 z m -54,75 c 50,0 90,-22 90,-77 0,-18 -5,-37 -10,-55 -11,-38 -30,-74 -63,-96 -53,-35 -111,-48 -183,-48 -50,0 -90,22 -90,77 0,18 5,37 10,55 11,38 30,74 63,96 53,36 111,48 183,48 z"
       fill="currentColor"
       id="path3243" />
  </g>
  <g
     transform="translate(45.93965,4.0988001)"
     id="g3249">
    <path
       transform="scale(0.0032,-0.0032)"
       d="m 212,138 c 59,0 113,-31 113,-95 0,-71 -52,-120 -99,-148 -34,-21 -73,-33 -113,-33 -59,0 -113,31 -113,95 0,71 53,120 100,148 34,21 72,33 112,33 z"
       fill="currentColor"
       id="path3247" />
  </g>
  <g
     transform="translate(42.40215,6.0988001)"
     id="g3253">
    <rect
       x="-0.0605"
       y="-4.1382999"
       width="0.1211"
       height="2.0012"
       ry="0.039999999"
       fill="currentColor"
       id="rect3251" />
  </g>
  <g
     transform="translate(41.42205,4.0988001)"
     id="g3257">
    <path
       transform="scale(0.0032,-0.0032)"
       d="m 212,138 c 59,0 113,-31 113,-95 0,-71 -52,-120 -99,-148 -34,-21 -73,-33 -113,-33 -59,0 -113,31 -113,95 0,71 53,120 100,148 34,21 72,33 112,33 z"
       fill="currentColor"
       id="path3255" />
  </g>
  <g
     transform="translate(10.05265,6.0988001)"
     id="g3261">
    <path
       stroke-width="0.0745"
       stroke-linejoin="round"
       stroke-linecap="round"
       stroke="currentColor"
       fill="currentColor"
       d="m 0.9451,-0.4479 c 1.8128,-1.5895 13.5893,-2.7856 15.6847,-1.5929 v 0 C 14.5457,-3.1223 2.7692,-1.9262 0.9451,-0.4479 Z"
       id="path3259" />
  </g>
  <g
     transform="translate(48.32505,0.90180015)"
     id="g3265">
    <path
       transform="scale(0.0018,-0.0018)"
       d="m 198,284 c 24,15 48,29 65,52 12,16 19,34 28,52 2,5 6,7 11,7 8,0 16,-6 16,-17 V 161 h 79 c 12,0 18,-9 18,-18 0,-9 -6,-18 -18,-18 h -79 c 2,-51 33,-96 80,-96 10,0 15,-8 15,-15 C 413,7 408,0 398,0 349,0 302,14 253,14 204,14 156,0 107,0 97,0 93,7 93,14 c 0,7 4,15 14,15 47,0 79,45 81,96 H 36 c -29,0 -38,17 -38,28 0,3 1,6 2,8 78,88 123,201 123,319 0,11 8,21 17,21 1,0 3,-1 4,-1 25,-7 50,-14 76,-14 26,0 52,7 77,14 2,1 4,1 6,1 10,0 17,-7 17,-14 0,-2 0,-5 -2,-7 L 36,161 h 152 v 96 c 0,10 1,21 10,27 z"
       fill="currentColor"
       id="path3263" />
  </g>
  <g
     transform="translate(48.18035,4.4988001)"
     id="g3269">
    <path
       transform="scale(0.0032,-0.0032)"
       d="m 212,138 c 59,0 113,-31 113,-95 0,-71 -52,-120 -99,-148 -34,-21 -73,-33 -113,-33 -59,0 -113,31 -113,95 0,71 53,120 100,148 34,21 72,33 112,33 z"
       fill="currentColor"
       id="path3267" />
  </g>
  <g
     transform="translate(49.16045,6.0988001)"
     id="g3273">
    <rect
       x="-0.0605"
       y="-3.7799001"
       width="0.1211"
       height="2.0427999"
       ry="0.039999999"
       fill="currentColor"
       id="rect3271" />
  </g>
  <g
     transform="translate(46.00015,6.0988001)"
     id="g3277">
    <rect
       x="-0.0605"
       y="2.1963999"
       width="0.1211"
       height="1.8036"
       ry="0.039999999"
       fill="currentColor"
       id="rect3275" />
  </g>
  <g
     transform="translate(76.04845,6.0988001)"
     id="g3281">
    <rect
       x="-0.0605"
       y="0"
       width="0.1211"
       height="3.0629001"
       ry="0.039999999"
       fill="currentColor"
       id="rect3279" />
  </g>
  <g
     transform="translate(75.06835,9.2988001)"
     id="g3285">
    <path
       transform="scale(0.0032,-0.0032)"
       d="m 212,138 c 59,0 113,-31 113,-95 0,-71 -52,-120 -99,-148 -34,-21 -73,-33 -113,-33 -59,0 -113,31 -113,95 0,71 53,120 100,148 34,21 72,33 112,33 z"
       fill="currentColor"
       id="path3283" />
  </g>
  <g
     transform="translate(77.30905,9.6988001)"
     id="g3289">
    <path
       transform="scale(0.0032,-0.0032)"
       d="m 212,138 c 59,0 113,-31 113,-95 0,-71 -52,-120 -99,-148 -34,-21 -73,-33 -113,-33 -59,0 -113,31 -113,95 0,71 53,120 100,148 34,21 72,33 112,33 z"
       fill="currentColor"
       id="path3287" />
  </g>
  <g
     transform="translate(73.80785,6.0988001)"
     id="g3293">
    <rect
       x="-0.0605"
       y="0"
       width="0.1211"
       height="2.6629"
       ry="0.039999999"
       fill="currentColor"
       id="rect3291" />
  </g>
  <g
     transform="translate(73.00655,3.7736001)"
     id="g3297">
    <path
       transform="scale(0.0018,-0.0018)"
       d="m 129,149 h 7 c 36,0 74,-13 111,-40 19,-14 40,-21 59,-21 22,0 40,10 46,31 2,7 7,11 13,11 7,0 15,-5 15,-14 v -5 C 361,40 296,0 234,0 196,0 159,15 133,47 121,62 105,69 89,69 60,69 32,48 29,13 28,4 22,0 15,0 8,0 0,5 0,14 c 0,173 233,163 233,341 0,56 -14,116 -62,116 -33,0 -66,-15 -66,-44 0,-24 31,-37 31,-61 0,-34 -27,-61 -61,-61 -34,0 -61,27 -61,61 0,78 74,134 157,134 98,0 191,-55 191,-145 C 362,211 227,199 129,149 Z"
       fill="currentColor"
       id="path3295" />
  </g>
  <g
     transform="translate(72.82765,8.8988001)"
     id="g3301">
    <path
       transform="scale(0.0032,-0.0032)"
       d="m 212,138 c 59,0 113,-31 113,-95 0,-71 -52,-120 -99,-148 -34,-21 -73,-33 -113,-33 -59,0 -113,31 -113,95 0,71 53,120 100,148 34,21 72,33 112,33 z"
       fill="currentColor"
       id="path3299" />
  </g>
  <g
     transform="translate(55.82195,3.0442001)"
     id="g3305">
    <polygon
       stroke-linejoin="round"
       stroke-linecap="round"
       stroke-width="0.08"
       fill="currentColor"
       stroke="currentColor"
       points="6.8031,0.5026 6.8031,0.8066 0.04,0.152 0.04,-0.152 "
       id="polygon3303" />
  </g>
  <g
     transform="translate(55.82195,3.6988001)"
     id="g3309">
    <polygon
       stroke-linejoin="round"
       stroke-linecap="round"
       stroke-width="0.08"
       fill="currentColor"
       stroke="currentColor"
       points="6.8031,0.5026 6.8031,0.8066 0.04,0.152 0.04,-0.152 "
       id="polygon3307" />
  </g>
  <g
     transform="translate(10.97225,6.2442001)"
     id="g3313">
    <polygon
       stroke-linejoin="round"
       stroke-linecap="round"
       stroke-width="0.08"
       fill="currentColor"
       stroke="currentColor"
       points="6.8031,-0.2974 6.8031,0.0066 0.04,0.152 0.04,-0.152 "
       id="polygon3311" />
  </g>
  <g
     transform="translate(10.97225,6.8988001)"
     id="g3317">
    <polygon
       stroke-linejoin="round"
       stroke-linecap="round"
       stroke-width="0.08"
       fill="currentColor"
       stroke="currentColor"
       points="6.8031,-0.2974 6.8031,0.0066 0.04,0.152 0.04,-0.152 "
       id="polygon3315" />
  </g>
  <g
     transform="translate(27.97795,6.0988001)"
     id="g3321">
    <path
       stroke-width="0.0745"
       stroke-linejoin="round"
       stroke-linecap="round"
       stroke="currentColor"
       fill="currentColor"
       d="m 0.9358,-2.9978 c 1.659,-1.5835 11.4378,-2.8436 13.444,-1.7325 v 0 C 12.3879,-5.7306 2.6091,-4.4704 0.9358,-2.9978 Z"
       id="path3319" />
  </g>
  <g
     transform="translate(19.93485,5.2988001)"
     id="g3325">
    <polygon
       stroke-linejoin="round"
       stroke-linecap="round"
       stroke-width="0.08"
       fill="currentColor"
       stroke="currentColor"
       points="6.8031,-0.8066 6.8031,-0.5026 0.04,0.152 0.04,-0.152 "
       id="polygon3323" />
  </g>
  <g
     transform="translate(19.93485,5.9534001)"
     id="g3329">
    <polygon
       stroke-linejoin="round"
       stroke-linecap="round"
       stroke-width="0.08"
       fill="currentColor"
       stroke="currentColor"
       points="6.8031,-0.8066 6.8031,-0.5026 0.04,0.152 0.04,-0.152 "
       id="polygon3327" />
  </g>
  <g
     transform="translate(28.89755,3.6988001)"
     id="g3333">
    <polygon
       stroke-linejoin="round"
       stroke-linecap="round"
       stroke-width="0.08"
       fill="currentColor"
       stroke="currentColor"
       points="6.8031,-0.8066 6.8031,-0.5026 0.04,0.152 0.04,-0.152 "
       id="polygon3331" />
  </g>
  <g
     transform="translate(28.89755,4.3534001)"
     id="g3337">
    <polygon
       stroke-linejoin="round"
       stroke-linecap="round"
       stroke-width="0.08"
       fill="currentColor"
       stroke="currentColor"
       points="6.8031,-0.8066 6.8031,-0.5026 0.04,0.152 0.04,-0.152 "
       id="polygon3335" />
  </g>
  <g
     transform="translate(37.86025,2.4988001)"
     id="g3341">
    <polygon
       stroke-linejoin="round"
       stroke-linecap="round"
       stroke-width="0.08"
       fill="currentColor"
       stroke="currentColor"
       points="4.5624,-0.6974 4.5624,-0.3934 0.04,0.152 0.04,-0.152 "
       id="polygon3339" />
  </g>
  <g
     transform="translate(37.86025,3.1534001)"
     id="g3345">
    <polygon
       stroke-linejoin="round"
       stroke-linecap="round"
       stroke-width="0.08"
       fill="currentColor"
       stroke="currentColor"
       points="2.3218,-0.4319 2.3218,-0.1279 0.04,0.152 0.04,-0.152 "
       id="polygon3343" />
  </g>
  <g
     transform="translate(45.93965,6.0988001)"
     id="g3349">
    <path
       stroke-width="0.0745"
       stroke-linejoin="round"
       stroke-linecap="round"
       stroke="currentColor"
       fill="currentColor"
       d="m 1.0151,-4.5862 c 2.095,-1.1933 13.8714,-6e-4 15.6847,1.5884 v 0 C 14.8753,-4.4756 3.0988,-5.6683 1.0151,-4.5862 Z"
       id="path3347" />
  </g>
  <g
     transform="translate(46.85925,2.0988001)"
     id="g3353">
    <polygon
       stroke-linejoin="round"
       stroke-linecap="round"
       stroke-width="0.08"
       fill="currentColor"
       stroke="currentColor"
       points="6.8031,0.5026 6.8031,0.8066 0.04,0.152 0.04,-0.152 "
       id="polygon3351" />
  </g>
  <g
     transform="translate(46.85925,2.7534001)"
     id="g3357">
    <polygon
       stroke-linejoin="round"
       stroke-linecap="round"
       stroke-width="0.08"
       fill="currentColor"
       stroke="currentColor"
       points="6.8031,0.5026 6.8031,0.8066 0.04,0.152 0.04,-0.152 "
       id="polygon3355" />
  </g>
  <g
     transform="translate(63.86505,6.0988001)"
     id="g3361">
    <path
       stroke-width="0.0745"
       stroke-linejoin="round"
       stroke-linecap="round"
       stroke="currentColor"
       fill="currentColor"
       d="M 1.0173,-2.0408 C 2.998,-3.193 12.7716,-2.1397 14.4613,-0.592 v 0 C 12.7596,-2.0286 2.986,-3.0818 1.0173,-2.0408 Z"
       id="path3359" />
  </g>
  <g
     transform="translate(71.56715,6.0988001)"
     id="g3365">
    <rect
       x="-0.0605"
       y="-0.80580002"
       width="0.1211"
       height="3.0687001"
       ry="0.039999999"
       fill="currentColor"
       id="rect3363" />
  </g>
  <g
     transform="translate(64.78455,4.6442001)"
     id="g3369">
    <polygon
       stroke-linejoin="round"
       stroke-linecap="round"
       stroke-width="0.08"
       fill="currentColor"
       stroke="currentColor"
       points="6.8031,0.5026 6.8031,0.8066 0.04,0.152 0.04,-0.152 "
       id="polygon3367" />
  </g>
  <g
     transform="translate(64.78455,5.2988001)"
     id="g3373">
    <polygon
       stroke-linejoin="round"
       stroke-linecap="round"
       stroke-width="0.08"
       fill="currentColor"
       stroke="currentColor"
       points="6.8031,0.5026 6.8031,0.8066 0.04,0.152 0.04,-0.152 "
       id="polygon3371" />
  </g>
  <g
     transform="translate(73.74725,6.0988001)"
     id="g3377">
    <polygon
       stroke-linejoin="round"
       stroke-linecap="round"
       stroke-width="0.08"
       fill="currentColor"
       stroke="currentColor"
       points="4.5624,-0.152 4.5624,0.152 0.04,0.152 0.04,-0.152 "
       id="polygon3375" />
  </g>
  <g
     transform="translate(73.74725,6.7534001)"
     id="g3381">
    <polygon
       stroke-linejoin="round"
       stroke-linecap="round"
       stroke-width="0.08"
       fill="currentColor"
       stroke="currentColor"
       points="2.3218,-0.152 2.3218,0.152 0.04,0.152 0.04,-0.152 "
       id="polygon3379" />
  </g>
  <g
     transform="translate(78.28915,6.0988001)"
     id="g3385">
    <rect
       x="-0.0605"
       y="0"
       width="0.1211"
       height="3.4628999"
       ry="0.039999999"
       fill="currentColor"
       id="rect3383" />
  </g>
  <g
     transform="translate(63.86505,7.2988001)"
     id="g3389">
    <path
       transform="scale(0.0032,-0.0032)"
       d="m 212,138 c 59,0 113,-31 113,-95 0,-71 -52,-120 -99,-148 -34,-21 -73,-33 -113,-33 -59,0 -113,31 -113,95 0,71 53,120 100,148 34,21 72,33 112,33 z"
       fill="currentColor"
       id="path3387" />
  </g>
  <g
     transform="translate(63.92555,6.0988001)"
     id="g3393">
    <rect
       x="-0.0605"
       y="2.1963999"
       width="0.1211"
       height="1.8036"
       ry="0.039999999"
       fill="currentColor"
       id="rect3391" />
  </g>
  <g
     transform="translate(64.84515,6.0988001)"
     id="g3397">
    <rect
       x="-0.0605"
       y="-1.4488"
       width="0.1211"
       height="2.5116999"
       ry="0.039999999"
       fill="currentColor"
       id="rect3395" />
  </g>
  <g
     transform="translate(63.86505,8.0988001)"
     id="g3401">
    <path
       transform="scale(0.0032,-0.0032)"
       d="m 310,63 c 0,23 -19,40 -40,40 -4,0 -8,-1 -12,-2 C 228,93 183,63 147,40 111,17 66,-12 46,-36 39,-44 36,-53 36,-63 c 0,-23 19,-40 40,-40 4,0 8,1 12,2 30,8 75,38 111,61 36,23 81,52 101,76 7,8 10,17 10,27 z m -54,75 c 50,0 90,-22 90,-77 0,-18 -5,-37 -10,-55 -11,-38 -30,-74 -63,-96 -53,-35 -111,-48 -183,-48 -50,0 -90,22 -90,77 0,18 5,37 10,55 11,38 30,74 63,96 53,36 111,48 183,48 z"
       fill="currentColor"
       id="path3399" />
  </g>
  <g
     transform="translate(64.00975,4.0522001)"
     id="g3405">
    <path
       transform="scale(0.0018,-0.0018)"
       d="m 198,284 c 24,15 48,29 65,52 12,16 19,34 28,52 2,5 6,7 11,7 8,0 16,-6 16,-17 V 161 h 79 c 12,0 18,-9 18,-18 0,-9 -6,-18 -18,-18 h -79 c 2,-51 33,-96 80,-96 10,0 15,-8 15,-15 C 413,7 408,0 398,0 349,0 302,14 253,14 204,14 156,0 107,0 97,0 93,7 93,14 c 0,7 4,15 14,15 47,0 79,45 81,96 H 36 c -29,0 -38,17 -38,28 0,3 1,6 2,8 78,88 123,201 123,319 0,11 8,21 17,21 1,0 3,-1 4,-1 25,-7 50,-14 76,-14 26,0 52,7 77,14 2,1 4,1 6,1 10,0 17,-7 17,-14 0,-2 0,-5 -2,-7 L 36,161 h 152 v 96 c 0,10 1,21 10,27 z"
       fill="currentColor"
       id="path3403" />
  </g>
  <g
     transform="translate(62.60445,6.0988001)"
     id="g3409">
    <rect
       x="-0.0605"
       y="-2.4058001"
       width="0.1211"
       height="3.0687001"
       ry="0.039999999"
       fill="currentColor"
       id="rect3407" />
  </g>
  <g
     transform="translate(61.62435,6.8988001)"
     id="g3413">
    <path
       transform="scale(0.0032,-0.0032)"
       d="m 212,138 c 59,0 113,-31 113,-95 0,-71 -52,-120 -99,-148 -34,-21 -73,-33 -113,-33 -59,0 -113,31 -113,95 0,71 53,120 100,148 34,21 72,33 112,33 z"
       fill="currentColor"
       id="path3411" />
  </g>
  <g
     transform="translate(70.58705,8.4988001)"
     id="g3417">
    <path
       transform="scale(0.0032,-0.0032)"
       d="m 212,138 c 59,0 113,-31 113,-95 0,-71 -52,-120 -99,-148 -34,-21 -73,-33 -113,-33 -59,0 -113,31 -113,95 0,71 53,120 100,148 34,21 72,33 112,33 z"
       fill="currentColor"
       id="path3415" />
  </g>
  <g
     transform="translate(69.32645,6.0988001)"
     id="g3421">
    <rect
       x="-0.0605"
       y="-1.0201"
       width="0.1211"
       height="2.8831"
       ry="0.039999999"
       fill="currentColor"
       id="rect3419" />
  </g>
  <g
     transform="translate(68.34635,8.0988001)"
     id="g3425">
    <path
       transform="scale(0.0032,-0.0032)"
       d="m 212,138 c 59,0 113,-31 113,-95 0,-71 -52,-120 -99,-148 -34,-21 -73,-33 -113,-33 -59,0 -113,31 -113,95 0,71 53,120 100,148 34,21 72,33 112,33 z"
       fill="currentColor"
       id="path3423" />
  </g>
  <g
     transform="translate(67.08585,6.0988001)"
     id="g3429">
    <rect
       x="-0.0605"
       y="-1.2345001"
       width="0.1211"
       height="2.6974001"
       ry="0.039999999"
       fill="currentColor"
       id="rect3427" />
  </g>
  <g
     transform="translate(66.10565,7.6988001)"
     id="g3433">
    <path
       transform="scale(0.0032,-0.0032)"
       d="m 212,138 c 59,0 113,-31 113,-95 0,-71 -52,-120 -99,-148 -34,-21 -73,-33 -113,-33 -59,0 -113,31 -113,95 0,71 53,120 100,148 34,21 72,33 112,33 z"
       fill="currentColor"
       id="path3431" />
  </g>
  <g
     transform="translate(16.97065,3.7785001)"
     id="g3437">
    <path
       transform="scale(0.0018,-0.0018)"
       d="M 129,129 H 259 C 259,77 291,29 340,29 350,29 354,21 354,14 354,7 350,0 340,0 291,0 243,14 194,14 145,14 98,0 49,0 39,0 34,7 34,14 c 0,7 5,15 15,15 49,0 80,48 80,100 z M 0,250 129,500 c 3,7 13,3 21,0 14,-6 28,-14 44,-14 16,0 31,8 45,14 2,1 2,1 4,1 8,0 16,-9 16,-21 V 129 H 129 v 215 c 0,15 -11,23 -20,23 -5,0 -9,-2 -11,-7 L 32,233 c -4,-7 -9,-9 -15,-9 -9,0 -19,7 -19,17 0,3 0,6 2,9 z"
       fill="currentColor"
       id="path3435" />
  </g>
  <g
     transform="translate(19.99545,6.0988001)"
     id="g3441">
    <rect
       x="-0.0605"
       y="-0.80580002"
       width="0.1211"
       height="2.6687"
       ry="0.039999999"
       fill="currentColor"
       id="rect3439" />
  </g>
  <g
     transform="translate(19.01535,8.0988001)"
     id="g3445">
    <path
       transform="scale(0.0032,-0.0032)"
       d="m 212,138 c 59,0 113,-31 113,-95 0,-71 -52,-120 -99,-148 -34,-21 -73,-33 -113,-33 -59,0 -113,31 -113,95 0,71 53,120 100,148 34,21 72,33 112,33 z"
       fill="currentColor"
       id="path3443" />
  </g>
  <g
     transform="translate(17.75475,6.0988001)"
     id="g3449">
    <rect
       x="-0.0605"
       y="0.0013"
       width="0.1211"
       height="2.2616"
       ry="0.039999999"
       fill="currentColor"
       id="rect3447" />
  </g>
  <g
     transform="translate(16.77465,8.4988001)"
     id="g3453">
    <path
       transform="scale(0.0032,-0.0032)"
       d="m 212,138 c 59,0 113,-31 113,-95 0,-71 -52,-120 -99,-148 -34,-21 -73,-33 -113,-33 -59,0 -113,31 -113,95 0,71 53,120 100,148 34,21 72,33 112,33 z"
       fill="currentColor"
       id="path3451" />
  </g>
  <g
     transform="translate(15.51415,6.0988001)"
     id="g3457">
    <rect
       x="-0.0605"
       y="0.048900001"
       width="0.1211"
       height="2.6140001"
       ry="0.039999999"
       fill="currentColor"
       id="rect3455" />
  </g>
  <g
     transform="translate(14.53395,8.8988001)"
     id="g3461">
    <path
       transform="scale(0.0032,-0.0032)"
       d="m 212,138 c 59,0 113,-31 113,-95 0,-71 -52,-120 -99,-148 -34,-21 -73,-33 -113,-33 -59,0 -113,31 -113,95 0,71 53,120 100,148 34,21 72,33 112,33 z"
       fill="currentColor"
       id="path3459" />
  </g>
  <g
     transform="translate(24.47675,6.0988001)"
     id="g3465">
    <rect
       x="-0.0605"
       y="-1.2345001"
       width="0.1211"
       height="2.2974"
       ry="0.039999999"
       fill="currentColor"
       id="rect3463" />
  </g>
  <g
     transform="translate(23.49665,7.2988001)"
     id="g3469">
    <path
       transform="scale(0.0032,-0.0032)"
       d="m 212,138 c 59,0 113,-31 113,-95 0,-71 -52,-120 -99,-148 -34,-21 -73,-33 -113,-33 -59,0 -113,31 -113,95 0,71 53,120 100,148 34,21 72,33 112,33 z"
       fill="currentColor"
       id="path3467" />
  </g>
  <g
     transform="translate(22.23615,6.0988001)"
     id="g3473">
    <rect
       x="-0.0605"
       y="-1.0201"
       width="0.1211"
       height="2.4830999"
       ry="0.039999999"
       fill="currentColor"
       id="rect3471" />
  </g>
  <g
     transform="translate(21.45195,3.4244001)"
     id="g3477">
    <path
       transform="scale(0.0018,-0.0018)"
       d="M 129,129 H 259 C 259,77 291,29 340,29 350,29 354,21 354,14 354,7 350,0 340,0 291,0 243,14 194,14 145,14 98,0 49,0 39,0 34,7 34,14 c 0,7 5,15 15,15 49,0 80,48 80,100 z M 0,250 129,500 c 3,7 13,3 21,0 14,-6 28,-14 44,-14 16,0 31,8 45,14 2,1 2,1 4,1 8,0 16,-9 16,-21 V 129 H 129 v 215 c 0,15 -11,23 -20,23 -5,0 -9,-2 -11,-7 L 32,233 c -4,-7 -9,-9 -15,-9 -9,0 -19,7 -19,17 0,3 0,6 2,9 z"
       fill="currentColor"
       id="path3475" />
  </g>
  <g
     transform="translate(21.25595,7.6988001)"
     id="g3481">
    <path
       transform="scale(0.0032,-0.0032)"
       d="m 212,138 c 59,0 113,-31 113,-95 0,-71 -52,-120 -99,-148 -34,-21 -73,-33 -113,-33 -59,0 -113,31 -113,95 0,71 53,120 100,148 34,21 72,33 112,33 z"
       fill="currentColor"
       id="path3479" />
  </g>
  <g
     transform="translate(4.29995,4.4988001)"
     id="g3485">
    <path
       transform="scale(0.0032,-0.0032)"
       d="m 198,-329 c -12,0 -21,9 -21,21 v 138 l -79,-30 v -154 c 0,-12 -9,-21 -21,-21 -12,0 -21,9 -21,21 v 138 l -22,-8 c -3,-1 -6,-2 -9,-2 -13,0 -25,11 -25,25 v 54 c 0,10 6,20 16,24 l 40,15 V 47 L 34,38 C 31,37 28,37 25,37 12,37 0,48 0,62 v 54 c 0,10 6,19 16,23 l 40,15 v 154 c 0,12 9,21 21,21 12,0 21,-9 21,-21 V 170 l 79,30 v 154 c 0,12 9,21 21,21 12,0 21,-9 21,-21 V 216 l 22,8 c 3,1 6,2 9,2 13,0 25,-11 25,-25 v -54 c 0,-10 -6,-20 -16,-24 L 219,108 V -47 l 22,9 c 3,1 6,1 9,1 13,0 25,-11 25,-25 v -54 c 0,-10 -6,-19 -16,-23 l -40,-15 v -154 c 0,-12 -9,-21 -21,-21 z M 98,62 V -92 l 79,30 V 92 Z"
       fill="currentColor"
       id="path3483" />
  </g>
  <g
     transform="translate(9.73675,6.0988001)"
     id="g3489">
    <rect
       x="-0.0605"
       y="2.1963999"
       width="0.1211"
       height="1.8036"
       ry="0.039999999"
       fill="currentColor"
       id="rect3487" />
  </g>
  <g
     transform="translate(11.03275,6.0988001)"
     id="g3493">
    <rect
       x="-0.0605"
       y="0.1441"
       width="0.1211"
       height="3.3188"
       ry="0.039999999"
       fill="currentColor"
       id="rect3491" />
  </g>
  <g
     transform="translate(6.32995,6.0988001)"
     id="g3497">
    <path
       transform="scale(0.0032,-0.0032)"
       d="m 356,30 c -48,0 -72,40 -72,72 0,37 26,75 70,75 3,0 6,-1 9,-1 -26,36 -67,59 -113,59 -107,0 -113,-74 -113,-189 0,-15 1,-30 1,-46 0,-16 -1,-31 -1,-46 0,-115 6,-189 113,-189 78,0 133,70 151,149 2,8 8,11 14,11 7,0 15,-5 15,-14 0,-95 -103,-176 -180,-176 -68,0 -137,20 -184,70 C 17,-143 0,-71 0,0 c 0,71 17,143 66,195 47,50 116,70 184,70 86,0 156,-67 171,-153 1,-4 1,-9 1,-13 0,-38 -30,-69 -66,-69 z"
       fill="currentColor"
       id="path3495" />
  </g>
  <g
     transform="translate(0.79994996,6.8988001)"
     id="g3501">
    <path
       transform="scale(0.0032,-0.0032)"
       d="m 379,264 c 3,0 7,1 10,1 157,0 258,-129 258,-263 0,-77 -33,-155 -108,-211 -22,-16 -46,-29 -72,-37 3,-33 4,-66 4,-99 0,-21 0,-41 -1,-62 -7,-121 -91,-229 -211,-229 -108,0 -196,88 -196,197 0,58 54,103 113,103 54,0 95,-47 95,-103 0,-52 -43,-95 -95,-95 -9,0 -18,1 -27,4 25,-37 66,-61 113,-61 95,0 156,93 162,191 1,19 2,38 2,57 0,29 -1,58 -3,87 -29,-5 -58,-8 -88,-8 -189,0 -333,173 -333,376 0,177 129,308 244,443 -20,62 -40,124 -48,189 -7,52 -7,105 -7,158 0,114 54,221 147,288 8,6 18,5 25,-1 72,-83 135,-243 135,-356 0,-142 -84,-255 -176,-364 21,-68 40,-136 57,-205 z m 84,-465 c 65,24 110,94 110,161 0,88 -64,175 -167,188 24,-114 44,-227 57,-349 z M 77,25 c 0,-133 128,-243 261,-243 27,0 55,1 81,5 C 406,-87 384,31 359,149 280,141 235,89 235,31 c 0,-43 25,-88 80,-120 5,-5 7,-11 7,-17 0,-12 -10,-23 -23,-23 -3,0 -7,1 -10,2 -81,43 -118,115 -118,186 0,89 60,177 163,200 -14,57 -30,113 -47,169 C 182,306 77,185 77,25 Z m 165,759 c 0,-71 21,-130 39,-188 78,97 142,199 142,324 0,51 -4,72 -20,118 C 304,992 242,893 242,784 Z"
       fill="currentColor"
       id="path3499" />
  </g>
  <g
     transform="translate(9.67625,8.0988001)"
     id="g3505">
    <path
       transform="scale(0.0032,-0.0032)"
       d="m 310,63 c 0,23 -19,40 -40,40 -4,0 -8,-1 -12,-2 C 228,93 183,63 147,40 111,17 66,-12 46,-36 39,-44 36,-53 36,-63 c 0,-23 19,-40 40,-40 4,0 8,1 12,2 30,8 75,38 111,61 36,23 81,52 101,76 7,8 10,17 10,27 z m -54,75 c 50,0 90,-22 90,-77 0,-18 -5,-37 -10,-55 -11,-38 -30,-74 -63,-96 -53,-35 -111,-48 -183,-48 -50,0 -90,22 -90,77 0,18 5,37 10,55 11,38 30,74 63,96 53,36 111,48 183,48 z"
       fill="currentColor"
       id="path3503" />
  </g>
  <g
     transform="translate(10.05265,3.9581001)"
     id="g3511">
    <text
       font-family="serif"
       font-size="1.76px"
       text-anchor="start"
       fill="currentColor"
       id="text3509"><tspan
         id="tspan3507">IV</tspan></text>
  </g>
  <g
     transform="translate(10.05265,9.6988001)"
     id="g3515">
    <path
       transform="scale(0.0032,-0.0032)"
       d="m 212,138 c 59,0 113,-31 113,-95 0,-71 -52,-120 -99,-148 -34,-21 -73,-33 -113,-33 -59,0 -113,31 -113,95 0,71 53,120 100,148 34,21 72,33 112,33 z"
       fill="currentColor"
       id="path3513" />
  </g>
  <g
     transform="translate(13.27345,6.0988001)"
     id="g3519">
    <rect
       x="-0.0605"
       y="0.096500002"
       width="0.1211"
       height="2.9663999"
       ry="0.039999999"
       fill="currentColor"
       id="rect3517" />
  </g>
  <g
     transform="translate(12.29335,9.2988001)"
     id="g3523">
    <path
       transform="scale(0.0032,-0.0032)"
       d="m 212,138 c 59,0 113,-31 113,-95 0,-71 -52,-120 -99,-148 -34,-21 -73,-33 -113,-33 -59,0 -113,31 -113,95 0,71 53,120 100,148 34,21 72,33 112,33 z"
       fill="currentColor"
       id="path3521" />
  </g>
  <g
     transform="translate(33.43945,6.0988001)"
     id="g3527">
    <rect
       x="-0.0605"
       y="-2.8345001"
       width="0.1211"
       height="2.2974"
       ry="0.039999999"
       fill="currentColor"
       id="rect3525" />
  </g>
  <g
     transform="translate(32.45935,5.6988001)"
     id="g3531">
    <path
       transform="scale(0.0032,-0.0032)"
       d="m 212,138 c 59,0 113,-31 113,-95 0,-71 -52,-120 -99,-148 -34,-21 -73,-33 -113,-33 -59,0 -113,31 -113,95 0,71 53,120 100,148 34,21 72,33 112,33 z"
       fill="currentColor"
       id="path3529" />
  </g>
  <g
     transform="translate(31.19875,6.0988001)"
     id="g3535">
    <rect
       x="-0.0605"
       y="-2.6201"
       width="0.1211"
       height="2.4830999"
       ry="0.039999999"
       fill="currentColor"
       id="rect3533" />
  </g>
  <g
     transform="translate(30.41465,1.9411001)"
     id="g3539">
    <path
       transform="scale(0.0018,-0.0018)"
       d="M 129,129 H 259 C 259,77 291,29 340,29 350,29 354,21 354,14 354,7 350,0 340,0 291,0 243,14 194,14 145,14 98,0 49,0 39,0 34,7 34,14 c 0,7 5,15 15,15 49,0 80,48 80,100 z M 0,250 129,500 c 3,7 13,3 21,0 14,-6 28,-14 44,-14 16,0 31,8 45,14 2,1 2,1 4,1 8,0 16,-9 16,-21 V 129 H 129 v 215 c 0,15 -11,23 -20,23 -5,0 -9,-2 -11,-7 L 32,233 c -4,-7 -9,-9 -15,-9 -9,0 -19,7 -19,17 0,3 0,6 2,9 z"
       fill="currentColor"
       id="path3537" />
  </g>
  <g
     transform="translate(30.21865,6.0988001)"
     id="g3543">
    <path
       transform="scale(0.0032,-0.0032)"
       d="m 212,138 c 59,0 113,-31 113,-95 0,-71 -52,-120 -99,-148 -34,-21 -73,-33 -113,-33 -59,0 -113,31 -113,95 0,71 53,120 100,148 34,21 72,33 112,33 z"
       fill="currentColor"
       id="path3541" />
  </g>
  <g
     transform="translate(34.70005,5.2988001)"
     id="g3547">
    <path
       transform="scale(0.0032,-0.0032)"
       d="m 212,138 c 59,0 113,-31 113,-95 0,-71 -52,-120 -99,-148 -34,-21 -73,-33 -113,-33 -59,0 -113,31 -113,95 0,71 53,120 100,148 34,21 72,33 112,33 z"
       fill="currentColor"
       id="path3545" />
  </g>
  <g
     transform="translate(34.89595,1.0615001)"
     id="g3551">
    <path
       transform="scale(0.0018,-0.0018)"
       d="M 129,129 H 259 C 259,77 291,29 340,29 350,29 354,21 354,14 354,7 350,0 340,0 291,0 243,14 194,14 145,14 98,0 49,0 39,0 34,7 34,14 c 0,7 5,15 15,15 49,0 80,48 80,100 z M 0,250 129,500 c 3,7 13,3 21,0 14,-6 28,-14 44,-14 16,0 31,8 45,14 2,1 2,1 4,1 8,0 16,-9 16,-21 V 129 H 129 v 215 c 0,15 -11,23 -20,23 -5,0 -9,-2 -11,-7 L 32,233 c -4,-7 -9,-9 -15,-9 -9,0 -19,7 -19,17 0,3 0,6 2,9 z"
       fill="currentColor"
       id="path3549" />
  </g>
  <g
     transform="translate(35.68015,6.0988001)"
     id="g3555">
    <rect
       x="-0.0605"
       y="-3.0488"
       width="0.1211"
       height="2.1117001"
       ry="0.039999999"
       fill="currentColor"
       id="rect3553" />
  </g>
  <g
     transform="translate(36.94065,4.8988001)"
     id="g3559">
    <path
       transform="scale(0.0032,-0.0032)"
       d="m 212,138 c 59,0 113,-31 113,-95 0,-71 -52,-120 -99,-148 -34,-21 -73,-33 -113,-33 -59,0 -113,31 -113,95 0,71 53,120 100,148 34,21 72,33 112,33 z"
       fill="currentColor"
       id="path3557" />
  </g>
  <g
     transform="translate(37.92075,6.0988001)"
     id="g3563">
    <rect
       x="-0.0605"
       y="-3.6071999"
       width="0.1211"
       height="2.2701001"
       ry="0.039999999"
       fill="currentColor"
       id="rect3561" />
  </g>
  <g
     transform="translate(39.18135,4.4988001)"
     id="g3567">
    <path
       transform="scale(0.0032,-0.0032)"
       d="m 212,138 c 59,0 113,-31 113,-95 0,-71 -52,-120 -99,-148 -34,-21 -73,-33 -113,-33 -59,0 -113,31 -113,95 0,71 53,120 100,148 34,21 72,33 112,33 z"
       fill="currentColor"
       id="path3565" />
  </g>
  <g
     transform="translate(40.16145,6.0988001)"
     id="g3571">
    <rect
       x="-0.0605"
       y="-3.8727"
       width="0.1211"
       height="2.1356001"
       ry="0.039999999"
       fill="currentColor"
       id="rect3569" />
  </g>
  <g
     transform="translate(25.73735,6.8988001)"
     id="g3575">
    <path
       transform="scale(0.0032,-0.0032)"
       d="m 212,138 c 59,0 113,-31 113,-95 0,-71 -52,-120 -99,-148 -34,-21 -73,-33 -113,-33 -59,0 -113,31 -113,95 0,71 53,120 100,148 34,21 72,33 112,33 z"
       fill="currentColor"
       id="path3573" />
  </g>
  <g
     transform="translate(25.93325,3.6136001)"
     id="g3579">
    <path
       transform="scale(0.0018,-0.0018)"
       d="M 129,129 H 259 C 259,77 291,29 340,29 350,29 354,21 354,14 354,7 350,0 340,0 291,0 243,14 194,14 145,14 98,0 49,0 39,0 34,7 34,14 c 0,7 5,15 15,15 49,0 80,48 80,100 z M 0,250 129,500 c 3,7 13,3 21,0 14,-6 28,-14 44,-14 16,0 31,8 45,14 2,1 2,1 4,1 8,0 16,-9 16,-21 V 129 H 129 v 215 c 0,15 -11,23 -20,23 -5,0 -9,-2 -11,-7 L 32,233 c -4,-7 -9,-9 -15,-9 -9,0 -19,7 -19,17 0,3 0,6 2,9 z"
       fill="currentColor"
       id="path3577" />
  </g>
  <g
     transform="translate(26.71745,6.0988001)"
     id="g3583">
    <rect
       x="-0.0605"
       y="-1.4488"
       width="0.1211"
       height="2.1117001"
       ry="0.039999999"
       fill="currentColor"
       id="rect3581" />
  </g>
  <g
     transform="translate(27.97795,6.4988001)"
     id="g3587">
    <path
       transform="scale(0.0032,-0.0032)"
       d="m 212,138 c 59,0 113,-31 113,-95 0,-71 -52,-120 -99,-148 -34,-21 -73,-33 -113,-33 -59,0 -113,31 -113,95 0,71 53,120 100,148 34,21 72,33 112,33 z"
       fill="currentColor"
       id="path3585" />
  </g>
  <g
     transform="translate(27.97795,8.0988001)"
     id="g3591">
    <path
       transform="scale(0.0032,-0.0032)"
       d="m 310,63 c 0,23 -19,40 -40,40 -4,0 -8,-1 -12,-2 C 228,93 183,63 147,40 111,17 66,-12 46,-36 39,-44 36,-53 36,-63 c 0,-23 19,-40 40,-40 4,0 8,1 12,2 30,8 75,38 111,61 36,23 81,52 101,76 7,8 10,17 10,27 z m -54,75 c 50,0 90,-22 90,-77 0,-18 -5,-37 -10,-55 -11,-38 -30,-74 -63,-96 -53,-35 -111,-48 -183,-48 -50,0 -90,22 -90,77 0,18 5,37 10,55 11,38 30,74 63,96 53,36 111,48 183,48 z"
       fill="currentColor"
       id="path3589" />
  </g>
  <g
     transform="translate(28.95815,6.0988001)"
     id="g3595">
    <rect
       x="-0.0605"
       y="-2.4058001"
       width="0.1211"
       height="2.6687"
       ry="0.039999999"
       fill="currentColor"
       id="rect3593" />
  </g>
  <g
     transform="translate(28.03855,6.0988001)"
     id="g3599">
    <rect
       x="-0.0605"
       y="2.1963999"
       width="0.1211"
       height="1.8036"
       ry="0.039999999"
       fill="currentColor"
       id="rect3597" />
  </g>
</svg>
